<svg width="1054" height="156" viewBox="0 0 1054 156" fill="none" xmlns="http://www.w3.org/2000/svg">
<path d="M9 16H403L453 49V119L403 156H9V16Z" fill="#FFB24E"/>
<rect x="453" y="49" width="601" height="70" fill="#FFB24E"/>
<rect x="982" y="117" width="72" height="30" fill="#FFB24E"/>
<rect x="887" y="117" width="71" height="30" fill="#FFB24E"/>
<path d="M393.55 1.5L442.5 33.8066V102.243L393.505 138.5H1.5V1.5H393.55Z" fill="white" stroke="#013D61" stroke-width="3"/>
<path d="M82.88 91V49H92.96V64.84H106.52V49H116.6V91H106.52V73.96H92.96V91H82.88ZM122.192 83.68V56.32L129.512 49H150.272L157.592 56.32V83.68L150.272 91H129.512L122.192 83.68ZM132.632 57.76V82.24H147.152V57.76H132.632ZM173.233 73.96H186.073V57.04H173.233V73.96ZM196.153 56.32V74.68L188.833 82H173.233V91H163.153V49H188.833L196.153 56.32ZM200.712 91V49H230.232V57.4H210.792V65.56H227.232V73.6H210.792V82.6H230.832V91H200.712ZM251.103 91V49H261.183V64.84H274.743V49H284.823V91H274.743V73.96H261.183V91H251.103ZM290.595 83.68V49H300.675V81.88H313.755V49H323.835V83.68L316.515 91H297.915L290.595 83.68ZM339.698 65.98H352.718V57.04H339.698V65.98ZM339.698 82.96H353.738V72.94H339.698V82.96ZM362.978 55.96V65.86L359.438 68.8L364.178 72.76V84.04L357.218 91H329.618V49H356.018L362.978 55.96Z" fill="#013D61"/>
<rect x="444" y="33" width="601" height="70" fill="#013D61"/>
<path d="M536.208 70.488H544.4V60.312H536.208V70.488ZM548.944 60.056V70.744L545.488 74.2H536.208V79H531.664V56.6H545.488L548.944 60.056ZM551.409 75.608V64.472L554.801 61.08H564.337L567.729 64.472V75.608L564.337 79H554.801L551.409 75.608ZM555.953 75.288H563.185V64.792H555.953V75.288ZM572.9 79L570.116 61.08H574.692L576.612 75.16H577.796L580.292 62.808H584.9L587.396 75.16H588.58L590.5 61.08H595.076L592.292 79H584.996L582.596 67.48L580.196 79H572.9ZM597.471 75.608V64.472L600.863 61.08H613.471V71.128H602.015V75.16H612.831V79H600.863L597.471 75.608ZM602.015 68.632L609.503 68.312V64.664H602.015V68.632ZM616.57 79V64.6L620.09 61.08H629.306V65.176H621.114V79H616.57ZM639.69 75.608V64.472L643.082 61.08H652.618L656.01 64.472V75.608L652.618 79H643.082L639.69 75.608ZM644.234 75.288H651.466V64.792H644.234V75.288ZM659.102 79V59.992L662.494 56.6H670.43V60.568H663.646V65.24H670.43V69.08H663.646V79H659.102ZM685.583 70.488H693.775V60.312H685.583V70.488ZM698.319 60.056V70.744L694.863 74.2H685.583V79H681.039V56.6H694.863L698.319 60.056ZM701.008 79V56.6H705.552V61.08H714L717.52 64.6V79H712.976V64.92H705.552V79H701.008ZM720.5 83.48V79.64H728.595L729.524 76.44H723.988L719.476 61.08H724.084L727.348 72.728H730.388L733.524 61.08H738.1L731.796 83.48H720.5ZM739.815 79V75.288H751.335V71.352H739.815V64.472L743.207 61.08H755.879V64.792H744.359V68.536H755.879V75.704L752.583 79H739.815ZM758.977 79V61.08H763.521V79H758.977ZM758.977 59.224V56.024H763.521V59.224H758.977ZM766.628 75.608V64.472L770.02 61.08H781.476V65.176H771.172V74.904H781.476V79H770.02L766.628 75.608ZM783.657 75.48V68.76L795.305 68.44V64.92H784.297V61.08H796.329L799.849 64.6V79H787.177L783.657 75.48ZM788.201 71.576V75.288H795.305V70.936L788.201 71.576ZM803.164 79V56.6H807.708V79H803.164ZM819.352 79V56.6H834.968V60.44H823.896V65.688H833.368V69.4H823.896V75.16H835.288V79H819.352ZM854.426 56.6V79H841.338L837.69 75.352V64.728L841.338 61.08H849.882V56.6H854.426ZM842.234 75.16H849.882V64.92H842.234V75.16ZM874.27 61.08V79H861.278L857.758 75.48V61.08H862.302V75.032H869.726V61.08H874.27ZM877.378 75.608V64.472L880.77 61.08H892.226V65.176H881.922V74.904H892.226V79H880.77L877.378 75.608ZM894.407 75.48V68.76L906.055 68.44V64.92H895.047V61.08H907.079L910.599 64.6V79H897.927L894.407 75.48ZM898.951 71.576V75.288H906.055V70.936L898.951 71.576ZM913.914 58.2L918.458 56.6V61.72H925.37V65.56H918.458V75.16H925.37V79H917.434L913.914 75.48V58.2ZM927.664 79V61.08H932.208V79H927.664ZM927.664 59.224V56.024H932.208V59.224H927.664ZM935.315 75.608V64.472L938.707 61.08H948.243L951.635 64.472V75.608L948.243 79H938.707L935.315 75.608ZM939.859 75.288H947.091V64.792H939.859V75.288ZM954.727 79V61.08H967.719L971.239 64.6V79H966.695V65.048H959.271V79H954.727Z" fill="white"/>
<rect x="973" y="101" width="72" height="30" fill="#013D61"/>
<rect x="878" y="101" width="71" height="30" fill="#013D61"/>
</svg>
